<?xml version="1.0" encoding="iso-8859-1"?>
<!-- Generator: Adobe Illustrator 19.0.0, SVG Export Plug-In . SVG Version: 6.00 Build 0)  -->
<svg version="1.1" id="Capa_1" xmlns="http://www.w3.org/2000/svg" xmlns:xlink="http://www.w3.org/1999/xlink" x="0px" y="0px"
	 viewBox="0 0 511.999 511.999" style="enable-background:new 0 0 511.999 511.999;" xml:space="preserve">
<path style="fill:#57555C;" d="M436.012,254.892C475.091,278.422,502,321.381,502,368.99c0,71.798-61.199,132.997-132.997,132.997
	c-36.459,0-70.189-15.78-94.548-40.719c-0.03-0.03-0.06-0.06-0.09-0.09c-23.569-24.159-38.359-56.889-38.359-92.188
	c0-40.329,19.31-77.308,48.959-101.988c23.13-19.25,52.569-31.009,84.038-31.009C393.193,235.993,416.172,242.933,436.012,254.892z"
	/>
<path style="fill:#FFFFFF;" d="M405.422,47.207c1.97,7.99,2.03,15.77,0.54,22.98c0,0-6.83,23.949-11.34,39.809
	c-25.409,0-51.619,0-75.248,0l-11.33-39.809c-0.68-3.29-1.04-6.7-1.04-10.19c0-31.959,29.989-56.919,63.369-48.269
	C387.373,16.137,401.193,30.167,405.422,47.207z"/>
<path style="fill:#FD3C65;" d="M319.374,109.995c23.629,0,49.839,0,75.248,0c-2.21,7.75-3.86,13.56-3.89,13.72
	c-2.56,8.64-3.03,17.62-1.59,26.279c-21.72,0-43.849,0-64.289,0c0.96-5.77,1.05-11.67,0.23-17.52c-1.07-5.18-1.83-8.86-1.83-8.86
	L319.374,109.995z"/>
<path style="fill:#FFFFFF;" d="M275.425,107.206c1.97,7.99,2.03,15.77,0.54,22.98c0,0-6.83,23.949-11.34,39.809
	c-25.409,0-51.619,0-75.248,0l-11.33-39.809c-0.68-3.29-1.04-6.7-1.04-10.19c0-31.959,29.989-56.919,63.369-48.269
	C257.376,76.136,271.195,90.166,275.425,107.206z"/>
<path style="fill:#FD3C65;" d="M189.377,169.994c23.63,0,49.839,0,75.248,0c-2.21,7.75-3.86,13.56-3.89,13.72
	c-2.56,8.64-3.03,17.62-1.59,26.279c-21.72,0-43.849,0-64.289,0c0.96-5.77,1.05-11.67,0.23-17.52c-1.07-5.18-1.83-8.86-1.83-8.86
	L189.377,169.994z"/>
<g>
	<path style="fill:#FFFFFF;" d="M416.582,210.203l-22.999-45.579c-2.11-4.69-3.6-9.61-4.44-14.63c-21.72,0-43.849,0-64.289,0
		c-0.83,5.02-2.32,9.94-4.43,14.63l-23,45.579c-8.56,14.14-14.76,27.759-19.02,40.789l-1.21,0.61l-13.61-26.979
		c-2.11-4.69-3.6-9.61-4.44-14.63c-21.72,0-43.849,0-64.289,0c-0.83,5.02-2.32,9.94-4.43,14.63l-14.23,28.199
		c-4.28-13.58-10.65-27.809-19.61-42.619l-22.999-45.579c-2.11-4.69-3.6-9.61-4.44-14.63c-21.72,0-43.849,0-64.289,0
		c-0.83,5.02-2.32,9.94-4.43,14.63L36.84,210.203c-54.679,90.298-12.95,159.137,12.45,190.876l1.12,1.4
		c3.79,4.75,9.54,7.51,15.62,7.51h61.369c5.92,0,13.82-4.47,17.61-9l1.98-0.33c7.98,26.189,21.95,46.749,32.889,60.419l1.13,1.4
		c3.79,4.75,9.54,7.51,15.61,7.51h60.779c6.07,0,11.82-2.76,15.61-7.51l1.36-1.3c-23.569-24.159-38.359-56.889-38.359-92.188
		c0-40.329,19.31-77.308,48.959-101.988c23.13-19.25,52.569-31.009,84.038-31.009c24.189,0,47.169,6.94,67.009,18.9l0.55-0.9
		C432.282,240.063,425.802,225.433,416.582,210.203z"/>
	<path style="fill:#FFFFFF;" d="M145.428,47.207c1.97,7.99,2.03,15.77,0.54,22.98c0,0-6.83,23.949-11.34,39.809
		c-25.409,0-51.619,0-75.248,0L48.05,70.186c-0.68-3.29-1.04-6.7-1.04-10.19c0-31.959,29.989-56.919,63.369-48.269
		C127.378,16.137,141.198,30.167,145.428,47.207z"/>
</g>
<path style="fill:#FD3C65;" d="M59.38,109.995c23.629,0,49.839,0,75.248,0c-2.21,7.75-3.86,13.56-3.89,13.72
	c-2.56,8.64-3.03,17.62-1.59,26.279c-21.72,0-43.849,0-64.289,0c0.96-5.77,1.05-11.67,0.23-17.52c-1.07-5.18-1.83-8.86-1.83-8.86
	L59.38,109.995z"/>
<path d="M462.001,348.99c-5.52,0-10,4.48-10,10s4.48,10,10,10c5.52,0,10-4.48,10-10S467.521,348.99,462.001,348.99z"/>
<path d="M359.003,288.992c5.52,0,10-4.48,10-10c0-5.52-4.48-10-10-10s-10,4.48-10,10
	C349.004,284.512,353.484,288.992,359.003,288.992z"/>
<path d="M369.003,318.991c0-5.52-4.48-10-10-10s-10,4.48-10,10s4.48,10,10,10S369.003,324.511,369.003,318.991z"/>
<path d="M319.004,288.992c-5.52,0-10,4.48-10,10c0,5.52,4.48,10,10,10s10-4.48,10-10
	C329.004,293.471,324.524,288.992,319.004,288.992z"/>
<path d="M445.454,249.011c-4.66-14.536-11.405-29.208-20.116-43.652l-22.725-45.032c-1.705-3.834-2.92-7.864-3.608-11.972
	c-1.209-7.278-0.755-14.816,1.314-21.8c0.039-0.133,0.076-0.267,0.11-0.401c0.104-0.381,0.678-2.438,3.811-13.424
	c4.509-15.857,11.337-39.801,11.337-39.802c0.068-0.237,0.127-0.477,0.177-0.718c1.855-8.976,1.646-18.194-0.628-27.413
	c-5.123-20.643-21.704-37.422-42.245-42.75c-18.586-4.813-37.746-0.997-52.572,10.477c-14.811,11.462-23.305,28.765-23.305,47.473
	c0,4.1,0.42,8.209,1.247,12.214c0.05,0.24,0.107,0.479,0.175,0.714l11.38,39.974c0.01,0.031,0.017,0.063,0.027,0.095l3.703,13.007
	l1.688,8.168c0.629,4.704,0.55,9.476-0.235,14.195c-0.678,4.1-1.887,8.123-3.596,11.963l-22.724,45.033
	c-4.573,7.581-8.591,15.225-12.065,22.869l-3.987-7.903c-1.706-3.834-2.92-7.865-3.608-11.972c-1.209-7.278-0.755-14.816,1.314-21.8
	c0.04-0.133,0.076-0.268,0.11-0.403c0.104-0.385,0.682-2.451,3.811-13.422c4.509-15.857,11.337-39.801,11.337-39.802
	c0.068-0.237,0.127-0.477,0.177-0.718c1.855-8.976,1.646-18.194-0.628-27.413c-5.123-20.643-21.705-37.422-42.245-42.75
	c-18.585-4.814-37.746-0.997-52.572,10.477c-14.811,11.462-23.305,28.765-23.305,47.473c0,4.1,0.42,8.209,1.247,12.214
	c0.05,0.24,0.107,0.479,0.175,0.714l11.38,39.974c0.01,0.031,0.017,0.063,0.027,0.095L183.539,186l1.688,8.168
	c0.629,4.704,0.55,9.476-0.235,14.195c-0.678,4.101-1.888,8.124-3.596,11.964l-3.985,7.898c-3.475-7.647-7.499-15.288-12.065-22.863
	l-22.725-45.033c-1.706-3.834-2.92-7.864-3.608-11.972c-1.209-7.278-0.755-14.816,1.314-21.8c0.039-0.132,0.075-0.266,0.109-0.399
	c0.102-0.375,0.672-2.419,3.812-13.426c4.509-15.857,11.337-39.801,11.337-39.802c0.068-0.237,0.127-0.477,0.177-0.718
	c1.855-8.976,1.646-18.194-0.628-27.413c-5.123-20.643-21.705-37.422-42.245-42.75C94.303-2.766,75.141,1.051,60.315,12.524
	C45.505,23.985,37.01,41.289,37.01,59.997c0,4.1,0.42,8.209,1.247,12.214c0.05,0.24,0.107,0.479,0.175,0.714l11.38,39.974
	c0.01,0.031,0.017,0.063,0.027,0.095L53.542,126l1.688,8.168c0.629,4.704,0.55,9.476-0.235,14.195
	c-0.675,4.084-1.878,8.093-3.576,11.919l-23.305,45.031c-25.054,41.501-33.42,83.33-24.866,124.33
	c5.599,26.839,18.464,52.977,38.233,77.682l1.113,1.392c5.716,7.164,14.258,11.272,23.435,11.272h61.369
	c4.803,0,9.86-1.629,14.352-4.022c6.934,17.612,17.101,34.842,30.345,51.391l1.096,1.358c5.716,7.164,14.255,11.272,23.426,11.272
	h60.778c6.093,0,11.9-1.822,16.792-5.139c26.354,23.7,60.405,37.138,94.816,37.138c37.395,0,73.085-15.095,100.494-42.503
	c27.408-27.408,42.503-63.099,42.503-100.494C512,321.269,486.623,275.752,445.454,249.011z M335.628,139.995
	c-0.021-2.977-0.227-5.952-0.641-8.908c-0.03-0.213-0.066-0.424-0.11-0.635l-1.83-8.859c-0.05-0.241-0.108-0.48-0.176-0.717
	l-0.251-0.881h48.765c-0.108,0.388-0.19,0.685-0.252,0.917c-1.82,6.156-2.753,12.609-2.784,19.083H335.628z M332.551,28.34
	c9.896-7.657,22.769-10.183,35.312-6.933c13.331,3.458,24.524,14.794,27.851,28.192c1.52,6.167,1.696,12.295,0.525,18.221
	c-0.747,2.621-5.265,18.464-9.168,32.175h-60.145l-9.158-32.172c-0.508-2.569-0.765-5.2-0.765-7.827
	C317.004,47.524,322.67,35.986,332.551,28.34z M306.352,214.708l23-45.579c0.066-0.132,0.131-0.266,0.191-0.401
	c1.28-2.843,2.36-5.763,3.243-8.733h48.434c0.886,2.975,1.966,5.894,3.244,8.733c0.061,0.136,0.125,0.27,0.191,0.401l23,45.579
	c0.115,0.229,0.24,0.454,0.373,0.674c4.01,6.624,7.551,13.284,10.63,19.937c-15.92-6.13-32.742-9.325-49.655-9.325
	c-28.333,0-56.377,8.999-80.21,25.545c4.14-11.971,9.9-24.119,17.186-36.156C306.112,215.162,306.237,214.937,306.352,214.708z
	 M205.631,199.994c-0.021-2.977-0.227-5.952-0.641-8.908c-0.03-0.213-0.066-0.424-0.11-0.635l-1.83-8.859
	c-0.05-0.241-0.108-0.48-0.176-0.717l-0.251-0.881h48.765c-0.108,0.388-0.19,0.686-0.252,0.917
	c-1.82,6.157-2.754,12.609-2.784,19.083L205.631,199.994L205.631,199.994z M202.554,88.34c9.895-7.658,22.768-10.184,35.312-6.934
	c13.331,3.458,24.524,14.794,27.851,28.192c1.52,6.167,1.696,12.295,0.525,18.221c-0.748,2.621-5.265,18.464-9.168,32.175h-60.144
	l-9.159-32.173c-0.508-2.568-0.765-5.199-0.765-7.826C187.007,107.522,192.673,95.985,202.554,88.34z M75.634,139.995
	c-0.021-2.977-0.227-5.952-0.641-8.908c-0.03-0.213-0.066-0.424-0.11-0.635l-1.83-8.859c-0.05-0.241-0.108-0.48-0.176-0.717
	l-0.251-0.881h48.766c-0.108,0.389-0.19,0.687-0.252,0.919c-1.82,6.156-2.754,12.608-2.784,19.081H75.634z M72.557,28.341
	c9.896-7.658,22.769-10.184,35.312-6.934C121.2,24.865,132.393,36.201,135.72,49.6c1.52,6.167,1.696,12.295,0.525,18.221
	c-0.748,2.621-5.265,18.464-9.168,32.175H66.933l-9.159-32.173c-0.508-2.568-0.765-5.199-0.765-7.826
	C57.01,47.524,62.676,35.986,72.557,28.341z M66.029,399.989c-3.059,0-5.902-1.365-7.81-3.756l-1.122-1.402
	c-31.257-39.06-58.662-101.9-11.704-179.448c0.116-0.19,0.225-0.386,0.327-0.583l23.589-45.579c0.084-0.162,0.163-0.326,0.238-0.493
	c1.28-2.843,2.36-5.763,3.243-8.733h48.434c0.886,2.975,1.966,5.894,3.244,8.733c0.061,0.136,0.125,0.27,0.191,0.401l23,45.579
	c0.115,0.229,0.239,0.452,0.372,0.672c7.375,12.191,13.194,24.5,17.363,36.653l-6.723,13.323
	c-26.473,43.882-34.271,87.918-23.254,131.016c-2.6,2.022-6.182,3.616-8.02,3.616H66.029V399.989z M196.617,459.988
	c-3.053,0-5.894-1.365-7.828-3.789l-1.104-1.369c-14.721-18.393-25.193-37.599-31.132-57.089
	c-12.152-39.827-5.615-80.995,19.43-122.36c0.133-0.22,0.257-0.444,0.373-0.674l22.999-45.579c0.066-0.132,0.131-0.266,0.191-0.401
	c1.28-2.843,2.36-5.763,3.243-8.733h48.434c0.886,2.975,1.966,5.894,3.244,8.733c0.061,0.135,0.124,0.269,0.19,0.4l17.896,35.471
	c-29.677,27.461-46.546,65.081-46.546,104.392c0,33.041,11.855,64.866,33.588,90.754c-0.713,0.159-1.45,0.244-2.199,0.244
	L196.617,459.988L196.617,459.988z M369.003,491.987c-32.135,0-63.989-13.744-87.394-37.706c-0.027-0.028-0.055-0.056-0.082-0.084
	l-0.047-0.047c-22.877-23.47-35.474-53.711-35.474-85.16c0-35.937,16.532-70.309,45.356-94.302
	c22.234-18.505,49.808-28.695,77.641-28.695c21.508,0,42.893,6.039,61.846,17.465c0.002,0.001,0.004,0.002,0.005,0.003
	c37.717,22.709,61.147,63.145,61.147,105.53C492.001,435.661,435.675,491.987,369.003,491.987z"/>
<path d="M461.184,384.777c-5.3-1.558-10.857,1.473-12.416,6.77c-10.142,34.457-44.433,60.442-79.766,60.442c-5.522,0-10,4.478-10,10
	s4.478,10,10,10c43.862,0,86.402-32.154,98.951-74.795C469.513,391.894,466.482,386.336,461.184,384.777z"/>
<g>
</g>
<g>
</g>
<g>
</g>
<g>
</g>
<g>
</g>
<g>
</g>
<g>
</g>
<g>
</g>
<g>
</g>
<g>
</g>
<g>
</g>
<g>
</g>
<g>
</g>
<g>
</g>
<g>
</g>
</svg>
